<svg width="1000" height="1000" viewBox="0 0 1000 1000" fill="none" xmlns="http://www.w3.org/2000/svg">
<path d="M595.575 541.234C622.442 555.913 650.166 571.061 631.64 594.64C615.757 614.854 598.948 631.015 581.213 643.122C519.495 691.377 426.808 742.982 426.808 742.982C405.114 757.92 375.463 743.44 373.905 717.244L365.736 579.764C364.725 562.748 356.351 547.022 342.798 536.674L233.253 453.03C212.374 437.088 216.948 404.457 241.466 394.854L369.889 344.558C385.769 338.338 398.163 325.526 403.836 309.452L449.694 179.542C458.444 154.756 490.97 149.022 507.673 169.321L595.212 275.718C602.099 284.089 609.442 289.206 620.946 293.494C641.785 299.858 664.069 303.04 687.8 303.04C725.24 303.04 758.36 290.8 787.16 266.32C816.68 241.12 831.44 206.2 831.44 161.56C831.44 116.92 812 82 773.12 56.8C734.96 31.6 681.68 19 613.28 19C545.6 19 479.72 33.4 415.64 62.2C352.28 90.28 300.8 126.64 261.2 171.28C221.6 215.92 191 264.52 169.4 317.08C147.8 368.92 137 420.04 137 470.44C137 588.52 166.88 677.8 226.64 738.28C287.12 798.76 366.32 829 464.24 829C506 829 546.32 823.24 585.2 811.72C585.2 867.16 594.2 909.28 612.2 938.08C630.92 966.88 662.24 981.28 706.16 981.28C750.08 981.28 792.2 966.52 832.52 937C813.08 915.4 803.36 882.28 803.36 837.64C803.36 793 813.08 728.56 832.52 644.32C852.68 559.36 862.76 508.6 862.76 492.04C862.76 433.72 836.84 404.56 785 404.56C723.08 404.56 653.6 430.12 576.56 481.24C535.562 508.444 565.013 524.536 595.575 541.234Z" fill="url(#paint0_radial_115_35)"/>
<defs>
<radialGradient id="paint0_radial_115_35" cx="0" cy="0" r="1" gradientUnits="userSpaceOnUse" gradientTransform="translate(500 500) rotate(100.205) scale(747.832 564.021)">
<stop stop-color="#EDA156"/>
<stop offset="1" stop-color="#EE569F"/>
</radialGradient>
</defs>
</svg>
