<svg width="3235" height="1017" viewBox="0 0 3235 1017" fill="none" xmlns="http://www.w3.org/2000/svg">
<path d="M458.575 576.234C485.442 590.913 513.166 606.061 494.64 629.64C478.757 649.854 461.948 666.015 444.213 678.122C382.495 726.377 289.808 777.982 289.808 777.982C268.114 792.92 238.463 778.44 236.905 752.244L228.736 614.764C227.725 597.748 219.351 582.022 205.798 571.674L96.2534 488.03C75.3743 472.088 79.9479 439.457 104.466 429.854L232.889 379.558C248.769 373.338 261.163 360.526 266.836 344.452L312.694 214.542C321.444 189.756 353.97 184.022 370.673 204.321L458.212 310.718C465.099 319.089 472.442 324.206 483.946 328.494C504.785 334.858 527.069 338.04 550.8 338.04C588.24 338.04 621.36 325.8 650.16 301.32C679.68 276.12 694.44 241.2 694.44 196.56C694.44 151.92 675 117 636.12 91.8C597.96 66.6 544.68 54 476.28 54C408.6 54 342.72 68.4 278.64 97.2C215.28 125.28 163.8 161.64 124.2 206.28C84.6 250.92 54 299.52 32.4 352.08C10.8 403.92 0 455.04 0 505.44C0 623.52 29.88 712.8 89.64 773.28C150.12 833.76 229.32 864 327.24 864C369 864 409.32 858.24 448.2 846.72C448.2 902.16 457.2 944.28 475.2 973.08C493.92 1001.88 525.24 1016.28 569.16 1016.28C613.08 1016.28 655.2 1001.52 695.52 972C676.08 950.4 666.36 917.28 666.36 872.64C666.36 828 676.08 763.56 695.52 679.32C715.68 594.36 725.76 543.6 725.76 527.04C725.76 468.72 699.84 439.56 648 439.56C586.08 439.56 516.6 465.12 439.56 516.24C398.562 543.444 428.013 559.536 458.575 576.234Z" fill="url(#paint0_radial_115_36)"/>
<path d="M908.335 165.24L847.855 78.84C937.855 26.28 1008.77 0 1060.61 0C1090.13 0 1111.01 6.12001 1123.25 18.36C1135.49 29.88 1141.61 52.2 1141.61 85.32C1141.61 117.72 1125.41 209.88 1093.01 361.8C1061.33 513.72 1045.49 620.28 1045.49 681.48C1045.49 742.68 1056.65 785.88 1078.97 811.08C1028.57 846.36 982.855 864 941.815 864C900.775 864 870.535 850.68 851.095 824.04C832.375 796.68 823.015 759.24 823.015 711.72C823.015 664.2 836.335 567 862.975 420.12C889.615 273.24 904.735 188.28 908.335 165.24Z" fill="url(#paint1_radial_115_36)"/>
<path d="M1520.44 864C1421.8 864 1345.48 838.44 1291.48 787.32C1238.2 736.2 1211.56 667.08 1211.56 579.96C1211.56 464.04 1251.16 370.08 1330.36 298.08C1410.28 225.36 1510.36 189 1630.6 189C1697.56 189 1748.32 204.12 1782.88 234.36C1817.44 263.88 1834.72 303.12 1834.72 352.08C1834.72 419.04 1801.96 474.84 1736.44 519.48C1671.64 563.4 1571.2 585.72 1435.12 586.44C1437.28 632.52 1447.72 668.88 1466.44 695.52C1485.16 721.44 1508.56 734.4 1536.64 734.4C1564.72 734.4 1588.84 725.04 1609 706.32C1629.88 687.6 1640.32 657 1640.32 614.52C1745.44 614.52 1798 639.36 1798 689.04C1798 731.52 1772.08 771.48 1720.24 808.92C1668.4 845.64 1601.8 864 1520.44 864ZM1612.24 315.36C1575.52 315.36 1541.68 333.72 1510.72 370.44C1480.48 407.16 1458.52 450.36 1444.84 500.04C1516.84 494.28 1570.84 478.08 1606.84 451.44C1643.56 424.08 1661.92 395.28 1661.92 365.04C1661.92 350.64 1657.24 338.76 1647.88 329.4C1639.24 320.04 1627.36 315.36 1612.24 315.36Z" fill="url(#paint2_radial_115_36)"/>
<path d="M2230.25 864C2131.61 864 2055.29 838.44 2001.29 787.32C1948.01 736.2 1921.37 667.08 1921.37 579.96C1921.37 464.04 1960.97 370.08 2040.17 298.08C2120.09 225.36 2220.17 189 2340.41 189C2407.37 189 2458.13 204.12 2492.69 234.36C2527.25 263.88 2544.53 303.12 2544.53 352.08C2544.53 419.04 2511.77 474.84 2446.25 519.48C2381.45 563.4 2281.01 585.72 2144.93 586.44C2147.09 632.52 2157.53 668.88 2176.25 695.52C2194.97 721.44 2218.37 734.4 2246.45 734.4C2274.53 734.4 2298.65 725.04 2318.81 706.32C2339.69 687.6 2350.13 657 2350.13 614.52C2455.25 614.52 2507.81 639.36 2507.81 689.04C2507.81 731.52 2481.89 771.48 2430.05 808.92C2378.21 845.64 2311.61 864 2230.25 864ZM2322.05 315.36C2285.33 315.36 2251.49 333.72 2220.53 370.44C2190.29 407.16 2168.33 450.36 2154.65 500.04C2226.65 494.28 2280.65 478.08 2316.65 451.44C2353.37 424.08 2371.73 395.28 2371.73 365.04C2371.73 350.64 2367.05 338.76 2357.69 329.4C2349.05 320.04 2337.17 315.36 2322.05 315.36Z" fill="url(#paint3_radial_115_36)"/>
<path d="M2820.17 810C2780.57 840.96 2742.77 856.44 2706.77 856.44C2670.77 856.44 2643.77 846.36 2625.77 826.2C2607.77 806.04 2598.77 780.84 2598.77 750.6C2598.77 719.64 2609.93 691.2 2632.25 665.28C2654.57 639.36 2686.25 623.88 2727.29 618.84L2904.41 430.92C2815.13 428.04 2753.57 414.72 2719.73 390.96C2685.89 367.2 2668.97 330.84 2668.97 281.88C2668.97 262.44 2672.93 229.68 2680.85 183.6C2729.09 203.76 2784.89 222.12 2848.25 238.68C2911.61 254.52 2961.29 263.16 2997.29 264.6C3008.81 242.28 3025.73 224.28 3048.05 210.6C3071.09 196.2 3098.09 189 3129.05 189C3160.73 189 3186.29 198.36 3205.73 217.08C3225.17 235.8 3234.89 260.28 3234.89 290.52C3234.89 343.08 3208.61 380.88 3156.05 403.92L2932.49 659.88C2979.29 674.28 3016.37 681.84 3043.73 682.56L3190.61 625.32C3205.73 664.2 3213.29 701.28 3213.29 736.56C3213.29 771.12 3196.73 801 3163.61 826.2C3130.49 851.4 3090.53 864 3043.73 864C2996.93 864 2947.61 855 2895.77 837C2877.77 831.24 2852.57 822.24 2820.17 810Z" fill="url(#paint4_radial_115_36)"/>
<defs>
<radialGradient id="paint0_radial_115_36" cx="0" cy="0" r="1" gradientUnits="userSpaceOnUse" gradientTransform="translate(1617.98 507.992) rotate(127.227) scale(976.212 2033.92)">
<stop stop-color="#EDA156"/>
<stop offset="1" stop-color="#EE569F"/>
</radialGradient>
<radialGradient id="paint1_radial_115_36" cx="0" cy="0" r="1" gradientUnits="userSpaceOnUse" gradientTransform="translate(1617.98 507.992) rotate(127.227) scale(976.212 2033.92)">
<stop stop-color="#EDA156"/>
<stop offset="1" stop-color="#EE569F"/>
</radialGradient>
<radialGradient id="paint2_radial_115_36" cx="0" cy="0" r="1" gradientUnits="userSpaceOnUse" gradientTransform="translate(1617.98 507.992) rotate(127.227) scale(976.212 2033.92)">
<stop stop-color="#EDA156"/>
<stop offset="1" stop-color="#EE569F"/>
</radialGradient>
<radialGradient id="paint3_radial_115_36" cx="0" cy="0" r="1" gradientUnits="userSpaceOnUse" gradientTransform="translate(1617.98 507.992) rotate(127.227) scale(976.212 2033.92)">
<stop stop-color="#EDA156"/>
<stop offset="1" stop-color="#EE569F"/>
</radialGradient>
<radialGradient id="paint4_radial_115_36" cx="0" cy="0" r="1" gradientUnits="userSpaceOnUse" gradientTransform="translate(1617.98 507.992) rotate(127.227) scale(976.212 2033.92)">
<stop stop-color="#EDA156"/>
<stop offset="1" stop-color="#EE569F"/>
</radialGradient>
</defs>
</svg>
